<svg viewBox="0 0 13 14" fill="none" xmlns="http://www.w3.org/2000/svg">
<path d="M1 4.27344V5.36501L4.27471 6.45658V9.18265V13.0003H5.36628L5.88635 9.67985C5.88635 9.52828 5.94656 9.38292 6.05374 9.27574C6.16091 9.16856 6.30628 9.10835 6.45785 9.10835C6.60942 9.10835 6.75479 9.16856 6.86196 9.27574C6.96914 9.38292 7.02935 9.52828 7.02935 9.67985L7.53799 13.0003H8.62956V6.45658L11.9043 5.36501V4.27344H1Z" fill="#4C5868" stroke="#E7E8E9" stroke-width="0.875" stroke-miterlimit="10"/>
<path d="M6.45774 4.269C7.36045 4.269 8.09224 3.53721 8.09224 2.6345C8.09224 1.73179 7.36045 1 6.45774 1C5.55503 1 4.82324 1.73179 4.82324 2.6345C4.82324 3.53721 5.55503 4.269 6.45774 4.269Z" fill="#4C5868" stroke="#E7E8E9" stroke-width="0.875" stroke-miterlimit="10"/>
</svg>
