<svg width="12" height="12" viewBox="0 0 12 12" fill="none" xmlns="http://www.w3.org/2000/svg">
<path opacity="0.5" d="M6 12C4.81331 12 3.65328 11.6481 2.66658 10.9888C1.67989 10.3295 0.910851 9.39246 0.456725 8.2961C0.0025997 7.19975 -0.11622 5.99335 0.115291 4.82946C0.346802 3.66557 0.918247 2.59648 1.75736 1.75736C2.59648 0.918247 3.66557 0.346802 4.82946 0.115291C5.99335 -0.11622 7.19975 0.0025997 8.2961 0.456725C9.39246 0.910851 10.3295 1.67989 10.9888 2.66658C11.6481 3.65328 12 4.81331 12 6C11.9983 7.59076 11.3656 9.11587 10.2407 10.2407C9.11587 11.3656 7.59076 11.9983 6 12ZM3.45 5.5572C3.39102 5.55682 3.33255 5.56813 3.27797 5.59048C3.22339 5.61283 3.17378 5.64577 3.132 5.6874C3.04788 5.77185 3.00065 5.8862 3.00065 6.0054C3.00065 6.1246 3.04788 6.23895 3.132 6.3234L4.83 8.0214C4.91438 8.10567 5.02875 8.15301 5.148 8.15301C5.26725 8.15301 5.38163 8.10567 5.466 8.0214L8.868 4.62C8.95213 4.53555 8.99936 4.4212 8.99936 4.302C8.99936 4.1828 8.95213 4.06845 8.868 3.984C8.78324 3.90046 8.66901 3.85362 8.55 3.85362C8.43099 3.85362 8.31676 3.90046 8.232 3.984L5.148 7.068L3.768 5.688C3.72628 5.64626 3.67669 5.61321 3.6221 5.59076C3.56752 5.5683 3.50902 5.5569 3.45 5.5572Z" fill="#69AF8A"/>
</svg>
