<?xml version="1.0" encoding="UTF-8" standalone="no"?>
<svg
   width="12"
   height="12"
   viewBox="0 0 12 12"
   fill="none"
   version="1.1"
   id="svg1"
   sodipodi:docname="incorrect.svg"
   inkscape:version="1.3.2 (091e20ef0f, 2023-11-25, custom)"
   xmlns:inkscape="http://www.inkscape.org/namespaces/inkscape"
   xmlns:sodipodi="http://sodipodi.sourceforge.net/DTD/sodipodi-0.dtd"
   xmlns="http://www.w3.org/2000/svg"
   xmlns:svg="http://www.w3.org/2000/svg">
  <defs
     id="defs1" />
  <sodipodi:namedview
     id="namedview1"
     pagecolor="#ffffff"
     bordercolor="#111111"
     borderopacity="1"
     inkscape:showpageshadow="0"
     inkscape:pageopacity="0"
     inkscape:pagecheckerboard="1"
     inkscape:deskcolor="#d1d1d1"
     inkscape:zoom="46.916667"
     inkscape:cx="6"
     inkscape:cy="6.0106572"
     inkscape:window-width="1440"
     inkscape:window-height="2488"
     inkscape:window-x="0"
     inkscape:window-y="0"
     inkscape:window-maximized="1"
     inkscape:current-layer="svg1" />
  <path
     d="M6 12C4.81331 12 3.65328 11.6481 2.66658 10.9888C1.67989 10.3295 0.910851 9.39246 0.456725 8.2961C0.0025997 7.19975 -0.11622 5.99335 0.115291 4.82946C0.346802 3.66557 0.918247 2.59648 1.75736 1.75736C2.59648 0.918247 3.66557 0.346802 4.82946 0.115291C5.99335 -0.11622 7.19975 0.0025997 8.2961 0.456725C9.39246 0.910851 10.3295 1.67989 10.9888 2.66658C11.6481 3.65328 12 4.81331 12 6C11.9983 7.59076 11.3656 9.11587 10.2407 10.2407C9.11587 11.3656 7.59076 11.9983 6 12ZM6 6.636L7.38 8.016C7.46434 8.10034 7.57873 8.14772 7.698 8.14772C7.81727 8.14772 7.93166 8.10034 8.016 8.016C8.10034 7.93166 8.14772 7.81727 8.14772 7.698C8.14772 7.57873 8.10034 7.46434 8.016 7.38L6.636 6L8.016 4.62C8.10034 4.53566 8.14772 4.42128 8.14772 4.302C8.14772 4.18273 8.10034 4.06834 8.016 3.984C7.93166 3.89966 7.81727 3.85228 7.698 3.85228C7.57873 3.85228 7.46434 3.89966 7.38 3.984L6 5.364L4.62 3.984C4.5347 3.90451 4.42187 3.86124 4.30529 3.8633C4.18871 3.86535 4.07748 3.91258 3.99503 3.99503C3.91258 4.07748 3.86535 4.18871 3.8633 4.30529C3.86124 4.42187 3.90451 4.5347 3.984 4.62L5.364 6L3.984 7.38C3.94224 7.42176 3.90912 7.47134 3.88651 7.5259C3.86391 7.58046 3.85228 7.63894 3.85228 7.698C3.85228 7.75706 3.86391 7.81554 3.88651 7.8701C3.90912 7.92466 3.94224 7.97424 3.984 8.016C4.02576 8.05776 4.07534 8.09089 4.1299 8.11349C4.18446 8.13609 4.24294 8.14772 4.302 8.14772C4.36106 8.14772 4.41954 8.13609 4.4741 8.11349C4.52866 8.09089 4.57824 8.05776 4.62 8.016L6 6.636Z"
     fill="#DD595F"
     fill-opacity="0.8"
     id="path1"
     style="fill:#ef7177;fill-opacity:1" />
</svg>
